<svg xmlns="http://www.w3.org/2000/svg" viewBox="0 0 24 24" fill="currentColor">
  <path d="M12 17a5 5 0 1 0 0-10 5 5 0 0 0 0 10zm0 2a7 7 0 1 1 0-14 7 7 0 0 1 0 14zm0-18a1 1 0 0 1 1 1v2a1 1 0 1 1-2 0V2a1 1 0 0 1 1-1zm0 20a1 1 0 0 1 1 1v2a1 1 0 1 1-2 0v-2a1 1 0 0 1 1-1zm13-11a1 1 0 0 1-1 1h-2a1 1 0 1 1 0-2h2a1 1 0 0 1 1 1zM3 12a1 1 0 0 1-1-1 1 1 0 0 1 1-1h2a1 1 0 1 1 0 2H3zm14.7-7.7a1 1 0 0 1 0 1.4l-1.4 1.4a1 1 0 1 1-1.4-1.4l1.4-1.4a1 1 0 0 1 1.4 0zM6.3 17.7a1 1 0 0 1 0 1.4l-1.4 1.4a1 1 0 0 1-1.4-1.4l1.4-1.4a1 1 0 0 1 1.4 0zm12.4 1.4a1 1 0 0 1-1.4 0l-1.4-1.4a1 1 0 1 1 1.4-1.4l1.4 1.4a1 1 0 0 1 0 1.4zM7.7 6.3a1 1 0 0 1-1.4 0L4.9 4.9a1 1 0 0 1 1.4-1.4l1.4 1.4a1 1 0 0 1 0 1.4z" />
</svg> 